<svg xmlns="http://www.w3.org/2000/svg" width="25" height="25" viewBox="0 0 25 25"><title>flower-delivery-2</title><circle cx="12.5" cy="12.5" r="12.5" fill="#00626e"/><path d="M12,9a2,2,0,0,0,2-2H10A2,2,0,0,0,12,9Z" fill="#fff"/><path d="M9,6h5a1.994,1.994,0,0,0-3.7226-1H9A.5.5,0,0,0,9,6Z" fill="#fff"/><polygon points="9.25 14.5 10.5 15.5 10.3 14.5 9.25 14.5" fill="#fff"/><path d="M7.5,13A1.5,1.5,0,0,1,9,11.5h.7L9.5,11l-4-.5,2.011,2.6088C7.5083,13.0722,7.5,13.0372,7.5,13Z" fill="#fff"/><path d="M7.5,8.5" fill="#fff"/><path d="M3.2925,9.75h.5v.5a.5.5,0,0,0,1,0v-.5h.5a.5.5,0,1,0,0-1h-.5v-.5a.5.5,0,0,0-1,0v.5h-.5a.5.5,0,0,0,0,1Zm1-1a.5.5,0,1,1-.5.5A.5.5,0,0,1,4.2925,8.75Z" fill="#fff"/><path d="M4.7925,7.25h.5v.5a.5.5,0,0,0,1,0v-.5h.5a.5.5,0,1,0,0-1h-.5v-.5a.5.5,0,0,0-1,0v.5h-.5a.5.5,0,0,0,0,1Zm1-1a.5.5,0,1,1-.5.5A.5.5,0,0,1,5.7925,6.25Z" fill="#fff"/><path d="M7.0855,8.75l-.3535.3535a.5.5,0,0,0,.707.707l.3535-.3535.3535.3535a.5.5,0,0,0,.707-.707L8.5,8.75l.3535-.3535a.5.5,0,1,0-.707-.707l-.3535.3535L7.439,7.69a.5.5,0,0,0-.707.707Zm.3535-.3535a.5.5,0,1,1,0,.7071A.5.5,0,0,1,7.4389,8.3965Z" fill="#fff"/><path d="M19,16H16.5352l-1.6289-2.4434h0l-.9577-2.8731a1,1,0,0,0-1.6553-.3906L10.5859,12H9a1,1,0,0,0,0,2h2a1,1,0,0,0,.707-.293l.856-.856.3336,1.0013h0l-1.7286,2.593a.9994.9994,0,0,0-.1167.8711l1,3a1,1,0,0,0,1.8975-.6328l-.8452-2.5361L14,15.8027l1.168,1.752A1,1,0,0,0,16,18h3a1,1,0,0,0,0-2Z" fill="#fff"/></svg>